<mxfile host="app.diagrams.net" modified="2023-09-01T14:08:48.432Z" agent="Mozilla/5.0 (Windows NT 10.0; Win64; x64) AppleWebKit/537.36 (KHTML, like Gecko) Chrome/116.0.0.0 Safari/537.36" version="21.6.9" etag="b2X2iF-kHT5zsG2UM12y" type="github">
  <diagram name="Page-1" id="GfPrv3He0qN1t_dbKUvy">
    <mxGraphModel>
      <root>
        <mxCell id="0" />
        <mxCell id="1" parent="0" />
      </root>
    </mxGraphModel>
  </diagram>
</mxfile>
